<?xml version="1.0" encoding="utf-8"?>
<!-- Generator: Adobe Illustrator 23.0.1, SVG Export Plug-In . SVG Version: 6.00 Build 0)  -->
<svg version="1.1" id="Layer_1" xmlns="http://www.w3.org/2000/svg" xmlns:xlink="http://www.w3.org/1999/xlink" x="0px" y="0px"
	 viewBox="0 0 512 512" style="enable-background:new 0 0 512 512;" xml:space="preserve">
<style type="text/css">
	.st0{fill:#010101;}
</style>
<title>01</title>
<g>
	<path class="st0" d="M256,6C118.2,6,6,118.2,6,256s112.2,250,250,250s250-112.1,250-250S393.9,6,256,6z M256,479.1
		C133,479.1,32.9,379,32.9,256S133,32.9,256,32.9S479.1,133,479.1,256S379,479.1,256,479.1z"/>
	<path class="st0" d="M315.9,195.2C315.9,195.2,315.9,195.2,315.9,195.2h66.9c1.9,0,3.4-1.5,3.4-3.3v-15.2c0-1.9-1.5-3.3-3.4-3.3
		h-66.8c-1.8,0-3.3,1.5-3.4,3.3c0,0,0,0,0,0v15.2C312.6,193.7,314.1,195.2,315.9,195.2z"/>
	<path class="st0" d="M350.9,214.9c-68.3,0-68.4,68.1-68.4,68.4c0,0-4.7,68.2,68.4,68.2c0,0,55,3.1,60.5-40.2c0.4-3.5-2-6.7-5.5-7.2
		c-0.3,0-0.5-0.1-0.8-0.1H386c-2.8,0-5.2,1.8-6.1,4.4c-1.7,5.7-7.5,14.7-28,14.7c0,0-26.5,1.8-30.7-23.7c-0.5-3.5,1.9-6.7,5.3-7.2
		c0.3,0,0.7-0.1,1-0.1H407c3.4,0,6.2-2.7,6.4-6.1C413.9,267.8,410.6,214.9,350.9,214.9z M375.2,268.3c-0.2,0-0.4,0-0.5,0l-49.6,0
		c-2.1,0-3.7-1.7-3.7-3.7c0-0.4,0.1-0.8,0.2-1.1c2.5-7.9,10-22.5,30.1-22.5c20.7,0,25.6,15.5,26.8,23.2
		C378.6,266.2,377.2,268,375.2,268.3z"/>
	<path class="st0" d="M243,252.5c-1.4-0.4-2.2-1.9-1.7-3.3c0.2-0.7,0.7-1.2,1.3-1.6c7.6-3.9,16.6-12.3,16.6-30.7
		c0-31.8-22.2-47.4-50.4-47.4h-88c-2.6,0-4.7,2.1-4.7,4.7V343c0,2.6,2.1,4.7,4.7,4.7c0,0,0,0,0,0h88c0,0,56.6,1.7,56.6-52.6
		C265.4,295.1,267.3,260.5,243,252.5z M156.9,237.6l0-33.1c0-1.9,1.5-3.4,3.4-3.4h48.5c0,0,12.6,0,12.6,18.5S214,241,205.5,241
		h-45.3C158.4,241,156.9,239.5,156.9,237.6C156.9,237.6,156.9,237.6,156.9,237.6z M206.2,316L206.2,316l-45.9,0
		c-1.9,0-3.4-1.5-3.4-3.4v-40.9c0-1.9,1.5-3.4,3.4-3.4c0,0,0,0,0,0h48.5c0,0,18.8-0.2,18.7,24.5C227.5,313.7,213.5,315.9,206.2,316z
		"/>
</g>
</svg>
