<svg id="Capa_1" data-name="Capa 1" xmlns="http://www.w3.org/2000/svg" viewBox="0 0 500 300"><defs><style>.cls-1{font-size:123.7px;}.cls-1,.cls-2,.cls-3{font-family:AgencyFB-Reg, Agency FB;}.cls-2{font-size:123.7px;}.cls-3{font-size:90px;}</style></defs><path d="M484.83,7A6.18,6.18,0,0,1,491,13.17V221.83a6.18,6.18,0,0,1-6.17,6.17H15.17A6.18,6.18,0,0,1,9,221.83V13.17A6.18,6.18,0,0,1,15.17,7H484.83m0-5H15.17A11.17,11.17,0,0,0,4,13.17V221.83A11.17,11.17,0,0,0,15.17,233H484.83A11.17,11.17,0,0,0,496,221.83V13.17A11.17,11.17,0,0,0,484.83,2Z"/><text class="cls-1" transform="translate(255.43 22.51) rotate(179.8)">F</text><text class="cls-2" transform="translate(244.66 117.23)">F</text><text class="cls-3" transform="translate(36.18 197.79)">Facundo Flores</text><path d="M74.46,256.27H82.6c8.8,0,13.14,6.53,13.14,19.33,0,14-3.81,21.79-13.86,21.79H74.46Zm2.7,38.62h4.49c8.62,0,11.27-7,11.27-19.05,0-11.84-3.47-17.07-11.21-17.07H77.16Z"/><path d="M104,282.44c0,7.29,1.37,13.06,6.77,13.06,5.57,0,6.29-5.5,6.47-6.35h2.69c-.06.67-1,8.78-9.16,8.78-8.32,0-9.47-8.1-9.47-15.54,0-9.54,3-15.7,9.77-15.7,7.4,0,9.1,6.53,9.1,13.85,0,.26,0,1-.06,1.9Zm13.48-2.36c0-6.68-1.61-11-6.47-11-6.53,0-6.83,9-7,11Z"/><path d="M127,289c.3,4,2.45,6.54,6.29,6.54s5.87-2.51,5.87-5.8c0-3.77-2-5.4-6.25-7.08-5.65-2.24-7.52-4.31-7.52-8.42s2.42-7.52,7.9-7.52c6,0,7.9,4,8,8.06h-2.69c-.12-1.67-.59-5.64-5.39-5.64-3.53,0-5,2.15-5,5s1,4.13,5.6,5.94c5.46,2.18,8.17,4.12,8.17,9.49,0,5.21-3.27,8.36-8.8,8.36s-8.56-3.41-8.8-9Z"/><path d="M163.56,292.87c0,2.16.18,3.84.24,4.52h-2.45a21.83,21.83,0,0,1-.3-3.85c-1.09,2.82-3.55,4.39-7.36,4.39-5.8,0-7.8-4.48-7.8-8.59,0-5.1,3.4-9.5,11.49-9.5a29.93,29.93,0,0,1,3.6.12v-4.5c0-2.76-.59-6.35-5.39-6.35-5.44,0-5.68,4-5.86,6.06H147.1c.12-4.24,2.17-8.48,8.56-8.48,5.46,0,7.9,2.78,7.9,8.23ZM161,282.38a22.86,22.86,0,0,0-3.47-.18c-6.29,0-9,3.05-9,7,0,3.41,1.85,6.29,5.51,6.29,5,0,6.94-3.43,6.94-11Z"/><path d="M171.43,277.5c0-4.71,0-8.15-.06-10.33h2.57c.06,1,.12,2.46.12,5.67a8.68,8.68,0,0,1,8-6.09v2.83c-5.37.35-8,4.82-8,10.26v17.55h-2.64Z"/><path d="M186.28,277.5c0-4.71,0-8.15-.06-10.33h2.57c.06,1,.13,2.46.13,5.67a8.66,8.66,0,0,1,8-6.09v2.83c-5.37.35-8,4.82-8,10.26v17.55h-2.64Z"/><path d="M218.86,281.86c0,10.41-3.28,16.07-9.71,16.07-6.78,0-9.82-5.48-9.82-16,0-10.34,3.82-15.23,9.89-15.23S218.86,271.71,218.86,281.86Zm-16.77.12c0,9.36,2.68,13.52,7,13.52s7-4.28,7-13.63c0-8.42-2.44-12.74-7-12.74C204.83,269.13,202.09,272.68,202.09,282Z"/><path d="M225.11,297.39v-43h2.64v43Z"/><path d="M235.73,297.39v-43h2.64v43Z"/><path d="M262,292.87c0,2.16.18,3.84.24,4.52h-2.45a21.83,21.83,0,0,1-.3-3.85c-1.09,2.82-3.55,4.39-7.36,4.39-5.8,0-7.8-4.48-7.8-8.59,0-5.1,3.4-9.5,11.49-9.5a29.93,29.93,0,0,1,3.6.12v-4.5c0-2.76-.59-6.35-5.39-6.35-5.44,0-5.68,4-5.86,6.06h-2.63c.12-4.24,2.17-8.48,8.56-8.48,5.46,0,7.9,2.78,7.9,8.23Zm-2.52-10.49a22.86,22.86,0,0,0-3.47-.18c-6.29,0-9,3.05-9,7,0,3.41,1.85,6.29,5.51,6.29,5,0,6.94-3.43,6.94-11Z"/><path d="M287.27,254.34v35.71c0,2.5,0,5.52.06,7.34h-2.57c-.06-.79-.12-3.07-.12-4.62-1,2.94-3,5.16-7.36,5.16-6.23,0-9-5.09-9-16,0-9.9,3.91-15.23,9.8-15.23,4.32,0,5.83,2,6.56,3.66v-16ZM271,281.92c0,9.85,2.45,13.46,6.65,13.46,5.4,0,6.95-4.79,6.95-13.58,0-10-1.67-12.62-6.59-12.62C274,269.18,271,273,271,281.92Z"/><path d="M313.05,281.86c0,10.41-3.28,16.07-9.71,16.07-6.78,0-9.82-5.48-9.82-16,0-10.34,3.82-15.23,9.89-15.23S313.05,271.71,313.05,281.86Zm-16.77.12c0,9.36,2.68,13.52,7,13.52s7-4.28,7-13.63c0-8.42-2.44-12.74-7-12.74C299,269.13,296.28,272.68,296.28,282Z"/><path d="M319.3,277.5c0-4.71,0-8.15-.06-10.33h2.57c.06,1,.12,2.46.12,5.67a8.68,8.68,0,0,1,8-6.09v2.83c-5.37.35-8,4.82-8,10.26v17.55H319.3Z"/><path d="M351.72,297.39l-8.26-41.12h2.83c3.51,17.76,6.57,33.05,7,37.41h.06c.44-4.31,5.59-27.11,7.69-37.41H364c2.1,10.22,7.18,33.51,7.56,37.34h.12c.85-6.33,5.63-27,7.72-37.34h2.75l-9,41.12h-3.23c-2-9.88-6.7-32.24-7.38-37.25h-.06c-.79,5.72-5.46,27.15-7.62,37.25Z"/><path d="M386.36,282.44c0,7.29,1.37,13.06,6.78,13.06,5.57,0,6.29-5.5,6.47-6.35h2.69c-.07.67-1,8.78-9.17,8.78-8.31,0-9.46-8.1-9.46-15.54,0-9.54,3-15.7,9.76-15.7,7.4,0,9.11,6.53,9.11,13.85,0,.26,0,1-.06,1.9Zm13.48-2.36c0-6.68-1.6-11-6.47-11-6.53,0-6.83,9-6.94,11Z"/><path d="M408.72,254.34h2.64v17.51a7.42,7.42,0,0,1,7.53-5.16c5.52,0,8.82,4.43,8.82,14.86,0,9.2-2.59,16.32-9.61,16.32-3.81,0-5.84-1.93-6.81-4.45,0,1.2-.06,2.59-.18,4h-2.45c.06-1.35.06-4,.06-8.17ZM425,281.61c0-8.69-2.38-12.43-6.42-12.43-5.51,0-7.3,5.26-7.3,13.1,0,7.37,1.32,13.1,6.76,13.1C422.51,295.38,425,290.93,425,281.61Z"/></svg>