<svg xmlns="http://www.w3.org/2000/svg" viewBox="0 0 140 140"><defs><style>.cls-1{stroke:#000;}.cls-2,.cls-3,.cls-4{fill:#fff;}.cls-3{font-size:123.7px;}.cls-3,.cls-4{stroke:#fff;font-family:AgencyFB-Reg, Agency FB;}.cls-4{font-size:123.7px;}</style></defs><g id="Capa_2" data-name="Capa 2"><rect class="cls-1" x="2.5" y="3.5" width="135" height="133" rx="6.99"/></g><g id="Capa_1" data-name="Capa 1"><path class="cls-2" d="M119.83,16A6.18,6.18,0,0,1,126,22.17v96.66a6.18,6.18,0,0,1-6.17,6.17H20.17A6.18,6.18,0,0,1,14,118.83V22.17A6.18,6.18,0,0,1,20.17,16h99.66m0-5H20.17A11.17,11.17,0,0,0,9,22.17v96.66A11.17,11.17,0,0,0,20.17,130h99.66A11.17,11.17,0,0,0,131,118.83V22.17A11.17,11.17,0,0,0,119.83,11Z"/><text class="cls-3" transform="translate(73.43 22.51) rotate(179.8)">F</text><text class="cls-4" transform="translate(67.66 117.23)">F</text></g></svg>