<svg id="Capa_1" data-name="Capa 1" xmlns="http://www.w3.org/2000/svg" viewBox="0 0 500 240"><defs><style>.cls-1{font-size:123.7px;}.cls-1,.cls-2,.cls-3{font-family:AgencyFB-Reg, Agency FB;}.cls-2{font-size:123.7px;}.cls-3{font-size:90px;}</style></defs><path d="M484.83,9A6.18,6.18,0,0,1,491,15.17V223.83a6.18,6.18,0,0,1-6.17,6.17H15.17A6.18,6.18,0,0,1,9,223.83V15.17A6.18,6.18,0,0,1,15.17,9H484.83m0-5H15.17A11.17,11.17,0,0,0,4,15.17V223.83A11.17,11.17,0,0,0,15.17,235H484.83A11.17,11.17,0,0,0,496,223.83V15.17A11.17,11.17,0,0,0,484.83,4Z"/><text class="cls-1" transform="translate(255.43 24.51) rotate(179.8)">F</text><text class="cls-2" transform="translate(244.66 119.23)">F</text><text class="cls-3" transform="translate(36.18 199.79)">Facundo Flores</text></svg>